<?xml version="1.0" encoding="utf-8"?>
<!-- Generator: Adobe Illustrator 21.0.0, SVG Export Plug-In . SVG Version: 6.00 Build 0)  -->
<svg version="1.1" id="Layer_1" xmlns="http://www.w3.org/2000/svg" xmlns:xlink="http://www.w3.org/1999/xlink" x="0px" y="0px"
	 viewBox="0 0 849 149.9" style="enable-background:new 0 0 849 149.9;" xml:space="preserve">
<style type="text/css">
	.st0{fill:#30435E;}
</style>
<title>aerobotics_logo</title>
<path class="st0" d="M248.1,108.2h-71.1c0.8,5.9,3.7,11.2,8.2,15c4.5,3.7,10.1,5.5,17.1,5.5c8,0.1,15.7-3,21.3-8.7l18.6,8.8
	c-4.2,6.2-10,11.3-16.7,14.6c-6.5,3.2-14.2,4.7-23.1,4.7c-13.8,0-25.1-4.4-33.8-13.1c-8.7-8.7-13-19.6-13-32.8
	c0-13.5,4.3-24.6,13-33.5c8.7-8.9,19.5-13.3,32.6-13.3c13.9,0,25.2,4.4,33.9,13.3c8.7,8.9,13,20.6,13,35.2L248.1,108.2z M226,90.8
	c-1.4-4.9-4.5-9.1-8.6-12c-4.4-3.1-9.6-4.7-15-4.6c-5.8-0.1-11.5,1.7-16.2,5.1c-2.9,2.2-5.6,6-8.1,11.4L226,90.8z"/>
<path class="st0" d="M257,58.4h19v11.1c1.8-4,4.6-7.5,8.2-10c3.3-2.2,7.2-3.4,11.2-3.4c3.1,0.1,6.2,0.8,9,2.3l-6.9,19
	c-2-1.1-4.1-1.8-6.4-2c-3.4,0-6.3,2.1-8.6,6.3s-3.5,12.5-3.5,24.8l0.1,4.3v35.7h-22L257,58.4z"/>
<path class="st0" d="M348.2,55.5c8.2,0,16.3,2.1,23.5,6.2c14.4,8.1,23.3,23.4,23.3,40c0,8.2-2.1,16.2-6.2,23.3
	c-4,7.1-9.8,13-16.9,17c-7.2,4.1-15.3,6.2-23.6,6.1c-12.2,0.2-23.9-4.7-32.4-13.5c-8.8-8.6-13.6-20.5-13.4-32.8
	c0-13.8,5.1-25.3,15.2-34.5C326.5,59.4,336.7,55.5,348.2,55.5z M348.6,76.3c-6.5-0.2-12.7,2.4-17.2,7.2c-4.6,4.8-6.9,10.9-6.9,18.4
	c0,7.7,2.3,13.9,6.8,18.6c4.4,4.7,10.7,7.3,17.2,7.1c6.5,0.2,12.8-2.5,17.3-7.2c4.6-4.8,6.9-11,6.9-18.6c0-7.6-2.3-13.7-6.8-18.4
	C361.4,78.7,355.6,76.3,348.6,76.3L348.6,76.3z"/>
<path class="st0" d="M427.4,23.7v43.8c3.7-3.8,8.1-6.9,13-9c4.7-2,9.8-3,14.9-3c11.5,0,21.3,4.3,29.3,13
	c8.1,8.7,12.1,19.8,12.1,33.5c0,13.1-4.2,24.1-12.5,33c-8.3,8.8-18.2,13.3-29.6,13.3c-4.9,0-9.7-0.9-14.2-2.7
	c-4.8-2.1-9.2-5.1-13-8.9v9.3h-22V23.7H427.4z M450.7,75.9c-6.5-0.2-12.8,2.4-17.4,7.1c-4.6,4.8-6.9,11-6.9,18.6
	c0,7.8,2.3,14.2,6.9,19c4.5,4.8,10.8,7.4,17.4,7.3c6.5,0.1,12.7-2.6,17.1-7.4c4.6-4.9,6.9-11.2,6.9-18.8c0-7.6-2.3-13.8-6.8-18.6
	C463.4,78.4,457.2,75.7,450.7,75.9z"/>
<path class="st0" d="M549.2,55.5c8.2,0,16.3,2.1,23.5,6.2c14.4,8.1,23.3,23.4,23.3,40c0,8.2-2.1,16.2-6.2,23.3
	c-4,7.1-9.8,13-16.9,17c-7.2,4.1-15.3,6.2-23.6,6.1c-12.2,0.2-23.9-4.7-32.4-13.5c-8.8-8.6-13.6-20.5-13.4-32.8
	c0-13.8,5.1-25.3,15.2-34.5C527.5,59.4,537.7,55.5,549.2,55.5z M549.6,76.3c-6.5-0.2-12.7,2.4-17.2,7.2c-4.6,4.8-6.9,10.9-6.9,18.4
	c0,7.7,2.3,13.9,6.8,18.6c4.4,4.7,10.7,7.3,17.2,7.1c6.5,0.2,12.8-2.5,17.3-7.2c4.6-4.8,6.9-11,6.9-18.6c0-7.6-2.3-13.7-6.8-18.4
	C562.4,78.7,556.6,76.3,549.6,76.3L549.6,76.3z"/>
<path class="st0" d="M608.7,25.2h22.1v32.5H644v19h-13.1v69.1h-22.1V76.8h-11.3v-19h11.3V25.2z"/>
<path class="st0" d="M664.2,21.4c3.8-0.1,7.4,1.5,10,4.2c2.7,2.7,4.2,6.4,4.2,10.2c0.1,3.8-1.4,7.4-4.1,10.1
	c-2.6,2.7-6.1,4.2-9.9,4.2c-3.8,0.1-7.5-1.5-10.1-4.3c-2.7-2.7-4.2-6.5-4.2-10.3C650.1,27.7,656.4,21.4,664.2,21.4L664.2,21.4z
	 M653.1,57.7h22.1v88.2h-22.1V57.7z"/>
<path class="st0" d="M775.7,76.2l-18.5,10.1c-2.9-3.2-6.4-5.8-10.3-7.5c-3.8-1.5-7.8-2.2-11.9-2.1c-8.3,0-15,2.5-20.1,7.4
	c-5.1,4.9-7.7,11.3-7.7,19c0,7.5,2.5,13.6,7.4,18.4c4.9,4.7,11.4,7.1,19.4,7.1c9.9,0,17.6-3.4,23.1-10.1l17.5,12
	c-9.5,12.3-22.8,18.5-40,18.5c-15.5,0-27.6-4.6-36.4-13.8c-8.8-9.2-13.2-19.9-13.2-32.3c-0.1-17,9.2-32.6,24.2-40.5
	c7.9-4.2,16.7-6.3,25.7-6.2c8.2-0.2,16.2,1.6,23.6,5.2C765.4,64.7,771.3,69.9,775.7,76.2z"/>
<path class="st0" d="M842.8,70.1l-13.7,13.7c-5.6-5.5-10.6-8.3-15.2-8.3c-2.1-0.1-4.1,0.4-5.8,1.6c-1.3,0.9-2.1,2.4-2.1,3.9
	c0,1.2,0.5,2.4,1.3,3.3c0.9,1,3.1,2.4,6.6,4.1l8.1,4c8.5,4.2,14.4,8.5,17.6,12.9c7.6,11,6,25.9-3.8,35c-5.8,5.2-13.5,7.9-23.1,7.9
	c-12.9,0-23.1-5-30.8-15.1l13.6-14.8c2.6,3,5.6,5.5,9.1,7.3c2.8,1.7,6,2.6,9.3,2.8c2.5,0.1,5-0.6,7-2.1c1.6-1.1,2.6-2.9,2.7-4.9
	c0-3.4-3.2-6.7-9.7-10l-7.5-3.7c-14.3-7.2-21.4-16.2-21.4-27c-0.1-6.9,2.9-13.4,8.1-17.9c5.4-4.9,12.3-7.4,20.6-7.4
	C825.3,55.4,836,60.8,842.8,70.1L842.8,70.1z"/>
<path class="st0" d="M114,2.5l-53.7,70h-51l33,24.7L3,146.9h26.7l29.7-39.8l54.7,39.8h29V2.5H114z M113.3,143.8L73,92.8l40.3-52.3
	V143.8z"/>
</svg>
